<?xml version="1.0" standalone="no"?>
<svg version="1.0" xmlns="http://w3.org" width="471pt" height="471pt" viewBox="0 0 471 471" preserveAspectRatio="xMidYMid meet">
  <g transform="translate(0,471) scale(0.1,-0.1)" fill="#000000" stroke="none">
    <path d="M0 2355 l0 -2355 2355 0 2355 0 0 2355 0 2355 -2355 0 -2355 0 0 -2355z m3636 1174 c3 -6 -1 -18 -11 -27 -16 -16 -17 -16 -6 6 l12 22 -919 0 -919 0 -16 -52 c-9 -30 -16 -43 -16 -30 -1 12 6 38 13 57 l15 35 920 0 c656 0 922 -3 927 -11z m-1882 -148 c-4 -17 -9 -30 -11 -27 -3 2 -2 19 2 36 9 41 17 33 9 -9z m-20 -85 c-3 -15 -8 -25 -11 -23 -2 3 -1 17 3 31 3 15 8 25 11 23 2 -3 1 -17 -3 -31z m-24 -103 c-10 -16 -11 -15 -6 7 3 14 6 32 7 40 1 8 4 5 6 -7 2 -12 -1 -30 -7 -40z m-13 -55 c-3 -8 -6 -5 -6 6 -1 11 2 17 5 13 3 -3 4 -12 1 -19z m-10 -40 c-3 -8 -6 -5 -6 6 -1 11 2 17 5 13 3 -3 4 -12 1 -19z m764 -320 c-17 -24 -43 -56 -57 -73 l-26 -30 24 35 c41 59 80 110 85 110 2 0 -10 -19 -26 -42z m-101 -138 c-11 -16 -26 -33 -33 -37 -12 -7 0 11 32 50 23 28 24 20 1 -13z m-40 -54 c0 -2 -8 -10 -17 -17 -16 -13 -17 -12 -4 4 13 16 21 21 21 13z m-91 -121 c-23 -30 -44 -55 -46 -55 -3 0 -1 6 4 13 44 59 75 97 79 97 3 0 -14 -25 -37 -55z m-69 -95 c-11 -16 -26 -33 -32 -36 -7 -4 1 9 16 29 34 44 46 50 16 7z m-40 -54 c0 -2 -8 -10 -17 -17 -16 -13 -17 -12 -4 4 13 16 21 21 21 13z m-50 -70 c0 -2 -8 -10 -17 -17 -16 -13 -17 -12 -4 4 13 16 21 21 21 13z m-50 -66 c-11 -16 -26 -33 -32 -36 -7 -4 1 9 16 29 34 44 46 50 16 7z m-60 -80 c-12 -16 -24 -30 -26 -30 -3 0 4 14 16 30 12 17 24 30 26 30 3 0 -4 -13 -16 -30z m-30 -43 c0 -2 -10 -12 -22 -23 l-23 -19 19 23 c18 21 26 27 26 19z m-60 -81 c0 -2 -8 -10 -17 -17 -16 -13 -17 -12 -4 4 13 16 21 21 21 13z m-50 -69 c0 -2 -10 -12 -22 -23 l-23 -19 19 23 c18 21 26 27 26 19z m-60 -77 c-12 -16 -24 -30 -26 -30 -3 0 4 14 16 30 12 17 24 30 26 30 3 0 -4 -13 -16 -30z m-30 -44 c0 -2 -8 -10 -17 -17 -16 -13 -17 -12 -4 4 13 16 21 21 21 13z m-30 -40 c0 -2 -8 -10 -17 -17 -16 -13 -17 -12 -4 4 13 16 21 21 21 13z m-80 -110 c0 -2 -8 -10 -17 -17 -16 -13 -17 -12 -4 4 13 16 21 21 21 13z m-30 -40 c0 -2 -8 -10 -17 -17 -16 -13 -17 -12 -4 4 13 16 21 21 21 13z m-60 -80 c0 -2 -8 -10 -17 -17 -16 -13 -17 -12 -4 4 13 16 21 21 21 13z m-190 -260 c0 -2 -8 -10 -17 -17 -16 -13 -17 -12 -4 4 13 16 21 21 21 13z m-120 -160 c0 -2 -8 -10 -17 -17 -16 -13 -17 -12 -4 4 13 16 21 21 21 13z m-30 -40 c0 -2 -8 -10 -17 -17 -16 -13 -17 -12 -4 4 13 16 21 21 21 13z m-15 -54 c-3 -3 -11 0 -18 7 -9 10 -8 11 6 5 10 -3 15 -9 12 -12z m63 1 c-10 -2 -26 -2 -35 0 -10 3 -2 5 17 5 19 0 27 -2 18 -5z"/>
  </g>
  <foreignObject x="0" y="0" width="471" height="471">
    <div xmlns="http://w3.org" style="color: #FF0000; font-family: sans-serif; padding: 20px;">
      <h1 style="margin: 0; color: #FF0000;">Hello World!</h1>
      <p style="margin-top: 10px; color: #FF0000;">This is HTML inside an SVG.</p>
    </div>
  </foreignObject>
</svg>
